<svg xmlns="http://www.w3.org/2000/svg" width="52.724" height="33" viewBox="0 0 52.724 33">
  <g id="Group_821" data-name="Group 821" transform="translate(-1035.455 -1672.349)">
    <g id="Group_815" data-name="Group 815" transform="translate(1049.636 1679.741)">
      <path id="Path_888" data-name="Path 888" d="M1698.593,2003.163h-34.4a2.074,2.074,0,0,1,0-4.148h34.4a2.074,2.074,0,0,1,0,4.148Z" transform="translate(-1662.123 -1999.015)" fill="#ffcd07"/>
    </g>
    <g id="Group_816" data-name="Group 816" transform="translate(1051.899 1686.831)">
      <path id="Path_889" data-name="Path 889" d="M1794.067,2316.5H1764.2a2.074,2.074,0,1,1,0-4.148h29.87a2.074,2.074,0,1,1,0,4.148Z" transform="translate(-1762.123 -2312.349)" fill="#ffcd07"/>
    </g>
    <g id="Group_817" data-name="Group 817" transform="translate(1053.935 1693.62)">
      <path id="Path_890" data-name="Path 890" d="M1879.994,2616.5h-25.8a2.074,2.074,0,1,1,0-4.148h25.8a2.074,2.074,0,1,1,0,4.148Z" transform="translate(-1852.123 -2612.349)" fill="#ffcd07"/>
    </g>
    <g id="Group_818" data-name="Group 818" transform="translate(1035.455 1672.349)">
      <path id="Path_891" data-name="Path 891" d="M1053.067,1676.5h-15.538a2.074,2.074,0,1,1,0-4.148h15.538a2.074,2.074,0,0,1,0,4.148Z" transform="translate(-1035.455 -1672.349)" fill="#ffcd07"/>
    </g>
    <g id="Group_819" data-name="Group 819" transform="translate(1059.407 1698.711)">
      <circle id="Ellipse_33" data-name="Ellipse 33" cx="3.319" cy="3.319" r="3.319" transform="translate(0)" fill="#ffcd07"/>
    </g>
    <g id="Group_820" data-name="Group 820" transform="translate(1071.778 1698.711)">
      <circle id="Ellipse_34" data-name="Ellipse 34" cx="3.319" cy="3.319" r="3.319" transform="translate(0)" fill="#ffcd07"/>
    </g>
  </g>
</svg>
